<?xml version="1.0" standalone="no"?><!DOCTYPE svg PUBLIC "-//W3C//DTD SVG 1.1//EN" "http://www.w3.org/Graphics/SVG/1.1/DTD/svg11.dtd"><svg t="1677903741955" class="icon" viewBox="0 0 1024 1024" version="1.1" xmlns="http://www.w3.org/2000/svg" p-id="2699" xmlns:xlink="http://www.w3.org/1999/xlink" width="200" height="200"><path d="M521.02003462 770.37766931c-105.42854611 5.71539605-198.18032832-57.7520195-238.61574512-144.27876452-44.43699716-95.0781329-36.05441817-188.95209443 27.38888115-272.7296613 60.48190464-79.87084106 144.55207445-111.60052919 244.11409979-99.70993404 49.42249462 5.90349636 92.99293825 26.19435628 130.97821192 58.43368716 20.60918475 17.50309739 20.14938169 25.32458672-2.69933845 38.437039-19.85356272 11.39863661-39.80680325 22.61721057-59.55747371 34.19590981-54.60573894 31.99013716-109.54909571 63.42561514-163.51818341 96.46879893-28.90173401 17.68476724-34.68143632 45.89840308-18.52720612 75.16990884 17.47576513 31.657341 51.35495734 39.02706657 87.25021151 18.27479636 106.66165537-61.68286154 212.96640153-123.9782581 319.96406749-185.08073858 17.70406022-10.10764837 19.64938387-20.39214494 11.7828781-37.5238618-27.67826964-60.26968809-68.44005052-109.77578357-123.06186644-146.80929403-120.69532257-81.83224165-249.4757995-94.94308672-381.35593489-32.77952032-131.56341622 62.01565611-203.03077807 170.91684687-214.91172519 314.4448126-9.84398491 118.9863317 35.42902065 219.72841375 121.3126824 302.63460383 119.74356097 115.58763983 319.86278246 133.77561936 457.40686543 40.85181377 35.81486935-24.18793925 35.81486935-24.18793925 13.6092325-61.13302563-24.00948384-39.93542053-47.83408022-47.3582002-89.51386313-27.37762741C603.62719286 760.76680114 562.74483239 773.04806826 521.02003462 770.37766931z" p-id="2700"></path><path d="M883.05938021 601.29039131c-1.98390961-28.58340758-17.48380439-51.80189946-30.85991856-75.74064342-4.36653044-7.81827488-11.37291315-4.81025653-17.62528263-1.24275732-24.51591056 14.03527441-48.95625955 28.19112685-73.65866478 41.88556744-10.49992912 5.82150431-12.35682868 12.87129468-6.28613062 23.1043443 14.06903715 23.71366487 28.03517887 47.49003195 41.52383336 71.53006091 5.86169597 10.44365897 12.89219489 12.83271027 23.00788253 6.43725536 14.77160345-9.33594941 30.02069728-17.99505438 44.28105077-28.04964863C876.12695186 630.25964758 883.58027668 617.67773985 883.05938021 601.29039131z" p-id="2701"></path></svg>