<?xml version="1.0" standalone="no"?><!DOCTYPE svg PUBLIC "-//W3C//DTD SVG 1.1//EN" "http://www.w3.org/Graphics/SVG/1.1/DTD/svg11.dtd"><svg t="1677833837690" class="icon" viewBox="0 0 1278 1024" version="1.1" xmlns="http://www.w3.org/2000/svg" p-id="1977" xmlns:xlink="http://www.w3.org/1999/xlink" width="249.609375" height="200"><path d="M1270.818746 283.54925c-17.962102-49.894729-74.842093-109.768404-236.999962-121.743139A557.324122 557.324122 0 0 0 638.65253 0.147189 531.378863 531.378863 0 0 0 97.793669 475.643956C-4.989473 571.441836-8.981051 646.782877 7.484209 693.683922c23.94947 66.858937 95.298932 104.279983 192.094707 118.250507a552.833597 552.833597 0 0 0 439.073614 212.052598c299.368374 0 542.854651-229.515753 542.854651-511.919919v-9.978945a361.736785 361.736785 0 0 0 78.833672-99.789458 149.684187 149.684187 0 0 0 10.477893-118.749455zM638.65253 99.936647a434.084142 434.084142 0 0 1 439.073615 359.242049 1234.894541 1234.894541 0 0 1-379.698887 188.602075 1247.368224 1247.368224 0 0 1-443.065193 68.854726 385.686255 385.686255 0 0 1-60.372622-204.568389C194.589443 285.046092 394.168359 99.936647 638.65253 99.936647zM101.785247 660.254453a53.38736 53.38736 0 0 1 6.486315-40.41473 542.854651 542.854651 0 0 0 21.454733 68.355779 55.882096 55.882096 0 0 1-27.941048-27.941049z m536.867283 263.943116a459.031506 459.031506 0 0 1-299.368373-107.772614 1526.279758 1526.279758 0 0 0 387.682044-73.844199 1479.378713 1479.378713 0 0 0 346.269419-158.665238 436.079931 436.079931 0 0 1-434.58309 340.282051z m482.482029-648.631476c33.429468 11.475788 49.894729 26.444206 55.882097 39.416836a55.882096 55.882096 0 0 1-6.985262 41.412625 174.132604 174.132604 0 0 1-8.981051 15.467366 508.926235 508.926235 0 0 0-39.915784-93.80209z"  p-id="1978"></path></svg>