<?xml version="1.0" standalone="no"?><!DOCTYPE svg PUBLIC "-//W3C//DTD SVG 1.1//EN" "http://www.w3.org/Graphics/SVG/1.1/DTD/svg11.dtd"><svg t="1677833629309" class="icon" viewBox="0 0 1109 1024" version="1.1" xmlns="http://www.w3.org/2000/svg" p-id="1404" xmlns:xlink="http://www.w3.org/1999/xlink" width="216.6015625" height="200"><path d="M1109.193298 341.419509a213.306403 213.306403 0 0 0-46.074183-131.823357l-27.30322-119.451586A124.997552 124.997552 0 0 0 910.39173 0.129264H199.228181a127.983842 127.983842 0 0 0-127.983842 90.015302l-24.743543 119.451586A213.306403 213.306403 0 0 0 127.983842 536.381562V896.016158a124.144327 124.144327 0 0 0 119.451586 127.983842h615.175667a124.144327 124.144327 0 0 0 119.451586-127.983842v-359.634596A213.306403 213.306403 0 0 0 1109.193298 341.419509z m-213.306404 554.596649a39.674991 39.674991 0 0 1-34.129024 42.661281H247.435428a39.674991 39.674991 0 0 1-34.129025-42.661281v-341.290245a213.306403 213.306403 0 0 0 170.645123-85.322562 213.306403 213.306403 0 0 0 341.290246 0 213.306403 213.306403 0 0 0 170.645122 85.322562z m0-426.612807a127.983842 127.983842 0 0 1-127.983842-127.983842v-13.224997a66.124985 66.124985 0 0 0-2.559677-9.812094 52.046762 52.046762 0 0 0-5.119353-8.105644 42.661281 42.661281 0 0 0-3.412903-4.692741 42.661281 42.661281 0 0 0-72.524177 28.156446v8.958869a127.983842 127.983842 0 0 1-255.967684 0v-9.385482a35.408863 35.408863 0 0 0 0-6.399192 58.019342 58.019342 0 0 0 0-7.252418 59.725793 59.725793 0 0 0-6.825805-11.091933 42.661281 42.661281 0 0 0-32.849186-14.504835 42.661281 42.661281 0 0 0-40.101604 39.674991v9.385481a127.983842 127.983842 0 1 1-229.944303-76.363692 42.661281 42.661281 0 0 0 15.784674-24.31693l29.862897-131.823357a42.661281 42.661281 0 0 1 42.66128-23.463705h711.163549a42.661281 42.661281 0 0 1 42.661281 23.463705l29.862896 131.396744a42.661281 42.661281 0 0 0 13.224997 21.757253 127.983842 127.983842 0 0 1-99.827396 207.333824z" fill="#333333" p-id="1405"></path><path d="M383.951526 640.048474a42.661281 42.661281 0 0 0 0 85.322561h341.290246a42.661281 42.661281 0 0 0 0-85.322561z"  p-id="1406"></path></svg>